<svg version="1.1" xmlns="http://www.w3.org/2000/svg" xmlns:xlink="http://www.w3.org/1999/xlink" width="210" height="208.16108658337774"><style xmlns="http://www.w3.org/1999/xhtml"></style><defs><clipPath id="fkcCZfnNfvEi"><path fill="none" stroke="none" stroke-dasharray="undefined" d="M 0 0 L 80 0 L 80 100 L 0 100 Z"/></clipPath><linearGradient id="AFZSNSeCVcyr" x1="0px" x2="80px" y1="82.842px" y2="82.842px" gradientUnits="userSpaceOnUse"><stop offset="0" stop-color="#808080"/><stop offset="0.7055" stop-color="#FFF"/><stop offset="1" stop-color="#171717"/></linearGradient><linearGradient id="JLoTXckuxUQF" x1="0px" x2="80px" y1="63.775px" y2="63.775px" gradientUnits="userSpaceOnUse"><stop offset="0" stop-color="#808080"/><stop offset="0.7055" stop-color="#FFF"/><stop offset="1" stop-color="#171717"/></linearGradient><linearGradient id="BxbrEOJVEkfk" x1="0px" x2="80px" y1="42.19px" y2="42.19px" gradientUnits="userSpaceOnUse"><stop offset="0" stop-color="#808080"/><stop offset="0.7055" stop-color="#FFF"/><stop offset="1" stop-color="#171717"/></linearGradient><clipPath id="qyEGBTvcbeTD"><path fill="none" stroke="none" stroke-dasharray="undefined" d="M 0 0 L 80 0 L 80 100 L 0 100 Z"/></clipPath><linearGradient id="yUankLMdrCLF" x1="0px" x2="80px" y1="82.842px" y2="82.842px" gradientUnits="userSpaceOnUse"><stop offset="0" stop-color="#808080"/><stop offset="0.7055" stop-color="#FFF"/><stop offset="1" stop-color="#171717"/></linearGradient><linearGradient id="zWRGlOfkyxSN" x1="0px" x2="80px" y1="63.775px" y2="63.775px" gradientUnits="userSpaceOnUse"><stop offset="0" stop-color="#808080"/><stop offset="0.7055" stop-color="#FFF"/><stop offset="1" stop-color="#171717"/></linearGradient><linearGradient id="eGValInOPaqK" x1="0px" x2="80px" y1="42.19px" y2="42.19px" gradientUnits="userSpaceOnUse"><stop offset="0" stop-color="#808080"/><stop offset="0.7055" stop-color="#FFF"/><stop offset="1" stop-color="#171717"/></linearGradient></defs><g transform="translate(0,0)"><g><rect fill="#FFFFFF" stroke="none" x="0" y="0" width="210" height="208.16108658337774"/></g><g transform="translate(0,0) matrix(1,0,0,1,7.402740667521897,8.161086583377738)"><g><g transform="translate(0,0)" clip-path="url(#fkcCZfnNfvEi)"><g transform="translate(0,0) scale(1,1)"><g><g><path fill="rgb(0,0,0)" stroke="rgb(0,0,0)" stroke-dasharray="undefined" d="M 0 0 L 80 0 Q 80 0 80 0 L 80 100 Q 80 100 80 100 L 0 100 Q 0 100 0 100 L 0 0 Q 0 0 0 0 Z" fill-opacity="0" stroke-opacity="0" stroke-miterlimit="10"/></g><g><path fill="#003366" stroke="rgb(0,0,0)" stroke-dasharray="undefined" d="M 80 22.54 C 79.965 16.745 -0.033 16.745 0 22.54 L 0 74.9 C 0.034 80.697 4.289 87.884 12.124 92.302 C 27.795 101.143 52.805 100.749 68.376 91.909 C 76.16 87.491 80.032 81.634 80 75.841 L 80 22.54 Z" stroke-opacity="0" stroke-miterlimit="10"/></g></g><g><g><path fill="rgb(0,0,0)" stroke="rgb(0,0,0)" stroke-dasharray="undefined" d="M 0 0 L 80 0 Q 80 0 80 0 L 80 100 Q 80 100 80 100 L 0 100 Q 0 100 0 100 L 0 0 Q 0 0 0 0 Z" fill-opacity="0" stroke-opacity="0" stroke-miterlimit="10"/></g><g><g><path fill="url(#AFZSNSeCVcyr)" stroke="rgb(0,0,0)" stroke-dasharray="undefined" d="M 68.98 77.395 C 53.08 86.406 27.211 86.406 11.208 77.395 C 5.298 74.069 1.565 69.975 5.329071e-15 65.685 L 5.329071e-15 76.926 C 0.035 82.83 3.973 88.738 11.81 93.244 C 27.48 102.252 52.808 102.252 68.377 93.243 C 76.161 88.738 80.033 82.83 80 76.926 L 80 65.818 C 78.456 70.062 74.79 74.101 68.98 77.395 Z" stroke-opacity="0" stroke-miterlimit="10"/></g></g><g><g><path fill="url(#JLoTXckuxUQF)" stroke="rgb(0,0,0)" stroke-dasharray="undefined" d="M 68.98 58.327 C 53.08 67.338 27.211 67.338 11.208 58.329 C 5.298 55.001 1.565 50.908 5.329071e-15 46.617 L 5.329071e-15 57.86 C 0.035 63.763 3.973 69.672 11.809 74.176 C 27.479 83.186 52.807 83.186 68.376 74.176 C 76.161 69.672 80.033 63.764 80 57.86 L 80 46.752 C 78.456 50.996 74.79 55.034 68.98 58.327 Z" stroke-opacity="0" stroke-miterlimit="10"/></g></g><g><g><path fill="url(#BxbrEOJVEkfk)" stroke="rgb(0,0,0)" stroke-dasharray="undefined" d="M 68.98 39.262 C 53.08 48.27 27.211 48.27 11.208 39.262 C 5.298 35.934 5.329071e-15 29.531 0.014 22.515 L 4.67508e-15 38.793 C 0.035 44.695 3.973 50.605 11.809 55.108 C 27.479 64.118 52.807 64.118 68.376 55.106 C 76.161 50.604 80.033 44.695 80 38.793 L 80 22.515 C 80 22.766 74.79 35.968 68.98 39.262 Z" stroke-opacity="0" stroke-miterlimit="10"/></g></g><g><path fill="#D0D2D3" stroke="rgb(0,0,0)" stroke-dasharray="undefined" d="M 39.836 1.052 C 61.88155 1.052 79.753 11.12112 79.753 23.542 C 79.753 35.96288 61.88155 46.032 39.836 46.032 C 17.79045 46.032 -0.081 35.96288 -0.081 23.542 C -0.081 11.12112 17.79045 1.052 39.836 1.052 Z" stroke-opacity="0" stroke-miterlimit="10"/></g><g><path fill="#7F7F7F" stroke="rgb(0,0,0)" stroke-dasharray="undefined" d="M 68.191 7.228 C 52.52 -1.786 27.192 -1.786 11.624 7.228 C -3.945 16.239 -3.865 30.847 11.809 39.858 C 27.48 48.871 52.808 48.871 68.377 39.857 C 83.945 30.847 83.864 16.238 68.191 7.228 Z M 65.538 38.228 C 51.526 46.336 28.729 46.336 14.627 38.23 C 0.522 30.118 0.448 16.968 14.462 8.857 C 28.473 0.748 51.27 0.748 65.373 8.857 C 79.477 16.968 79.552 30.118 65.538 38.228 Z" stroke-opacity="0" stroke-miterlimit="10"/></g></g></g></g></g></g><g transform="translate(0,0) matrix(1,0,0,1,110,88.16108658337774)"><g><g transform="translate(0,0)" clip-path="url(#qyEGBTvcbeTD)"><g transform="translate(0,0) scale(1,1)"><g><g><path fill="rgb(0,0,0)" stroke="rgb(0,0,0)" stroke-dasharray="undefined" d="M 0 0 L 80 0 Q 80 0 80 0 L 80 100 Q 80 100 80 100 L 0 100 Q 0 100 0 100 L 0 0 Q 0 0 0 0 Z" fill-opacity="0" stroke-opacity="0" stroke-miterlimit="10"/></g><g><path fill="#003366" stroke="rgb(0,0,0)" stroke-dasharray="undefined" d="M 80 22.54 C 79.965 16.745 -0.033 16.745 0 22.54 L 0 74.9 C 0.034 80.697 4.289 87.884 12.124 92.302 C 27.795 101.143 52.805 100.749 68.376 91.909 C 76.16 87.491 80.032 81.634 80 75.841 L 80 22.54 Z" stroke-opacity="0" stroke-miterlimit="10"/></g></g><g><g><path fill="rgb(0,0,0)" stroke="rgb(0,0,0)" stroke-dasharray="undefined" d="M 0 0 L 80 0 Q 80 0 80 0 L 80 100 Q 80 100 80 100 L 0 100 Q 0 100 0 100 L 0 0 Q 0 0 0 0 Z" fill-opacity="0" stroke-opacity="0" stroke-miterlimit="10"/></g><g><g><path fill="url(#yUankLMdrCLF)" stroke="rgb(0,0,0)" stroke-dasharray="undefined" d="M 68.98 77.395 C 53.08 86.406 27.211 86.406 11.208 77.395 C 5.298 74.069 1.565 69.975 5.329071e-15 65.685 L 5.329071e-15 76.926 C 0.035 82.83 3.973 88.738 11.81 93.244 C 27.48 102.252 52.808 102.252 68.377 93.243 C 76.161 88.738 80.033 82.83 80 76.926 L 80 65.818 C 78.456 70.062 74.79 74.101 68.98 77.395 Z" stroke-opacity="0" stroke-miterlimit="10"/></g></g><g><g><path fill="url(#zWRGlOfkyxSN)" stroke="rgb(0,0,0)" stroke-dasharray="undefined" d="M 68.98 58.327 C 53.08 67.338 27.211 67.338 11.208 58.329 C 5.298 55.001 1.565 50.908 5.329071e-15 46.617 L 5.329071e-15 57.86 C 0.035 63.763 3.973 69.672 11.809 74.176 C 27.479 83.186 52.807 83.186 68.376 74.176 C 76.161 69.672 80.033 63.764 80 57.86 L 80 46.752 C 78.456 50.996 74.79 55.034 68.98 58.327 Z" stroke-opacity="0" stroke-miterlimit="10"/></g></g><g><g><path fill="url(#eGValInOPaqK)" stroke="rgb(0,0,0)" stroke-dasharray="undefined" d="M 68.98 39.262 C 53.08 48.27 27.211 48.27 11.208 39.262 C 5.298 35.934 5.329071e-15 29.531 0.014 22.515 L 4.67508e-15 38.793 C 0.035 44.695 3.973 50.605 11.809 55.108 C 27.479 64.118 52.807 64.118 68.376 55.106 C 76.161 50.604 80.033 44.695 80 38.793 L 80 22.515 C 80 22.766 74.79 35.968 68.98 39.262 Z" stroke-opacity="0" stroke-miterlimit="10"/></g></g><g><path fill="#D0D2D3" stroke="rgb(0,0,0)" stroke-dasharray="undefined" d="M 39.836 1.052 C 61.88155 1.052 79.753 11.12112 79.753 23.542 C 79.753 35.96288 61.88155 46.032 39.836 46.032 C 17.79045 46.032 -0.081 35.96288 -0.081 23.542 C -0.081 11.12112 17.79045 1.052 39.836 1.052 Z" stroke-opacity="0" stroke-miterlimit="10"/></g><g><path fill="#7F7F7F" stroke="rgb(0,0,0)" stroke-dasharray="undefined" d="M 68.191 7.228 C 52.52 -1.786 27.192 -1.786 11.624 7.228 C -3.945 16.239 -3.865 30.847 11.809 39.858 C 27.48 48.871 52.808 48.871 68.377 39.857 C 83.945 30.847 83.864 16.238 68.191 7.228 Z M 65.538 38.228 C 51.526 46.336 28.729 46.336 14.627 38.23 C 0.522 30.118 0.448 16.968 14.462 8.857 C 28.473 0.748 51.27 0.748 65.373 8.857 C 79.477 16.968 79.552 30.118 65.538 38.228 Z" stroke-opacity="0" stroke-miterlimit="10"/></g></g></g></g></g></g><g transform="translate(0.5,0.5) matrix(-0.5000000000000004,-0.8660254037844385,0.8660254037844385,-0.5000000000000004,125.09144327963301,106.01600404107222)"><g><g transform="translate(0,0) scale(0.6156561355264375,0.6156561355264374)"><g><g><path fill="#999" stroke="rgb(0,0,0)" stroke-dasharray="undefined" d="M 28.228 83.011 C 60.886 80.698 87.534 50.731 105.75 25.349 C 111.632 17.153 120 0 120 0 C 120 0 113.306 8.22 109.786 12.035 C 91.6 34.356 60.626 55.64 28.271 55.558 L 28.274 41.095 L 0 69.057 L 28.207 97.457 L 28.228 83.011 Z" stroke-opacity="0" stroke-miterlimit="10"/></g></g></g></g></g></g></svg>